<mxfile host="app.diagrams.net" modified="2021-04-13T03:56:20.663Z" agent="5.0 (Macintosh; Intel Mac OS X 11_2_3) AppleWebKit/537.36 (KHTML, like Gecko) Chrome/89.0.4389.114 Safari/537.36" etag="Ox5u_VQ_vFioBbFBW_Xt" version="14.5.10" type="github">
  <diagram id="R2lEEEUBdFMjLlhIrx00" name="Page-1">
    <mxGraphModel dx="1787" dy="967" grid="1" gridSize="10" guides="1" tooltips="1" connect="1" arrows="1" fold="1" page="1" pageScale="1" pageWidth="850" pageHeight="1100" math="0" shadow="0" extFonts="Permanent Marker^https://fonts.googleapis.com/css?family=Permanent+Marker">
      <root>
        <mxCell id="0" />
        <mxCell id="1" parent="0" />
        <mxCell id="E98kSPfZP86CaEC_CXRD-1" value="car_selfcheck" style="shape=table;startSize=30;container=1;collapsible=1;childLayout=tableLayout;fixedRows=1;rowLines=0;fontStyle=1;align=center;resizeLast=1;" vertex="1" parent="1">
          <mxGeometry x="220" y="150" width="180" height="280" as="geometry" />
        </mxCell>
        <mxCell id="E98kSPfZP86CaEC_CXRD-2" value="" style="shape=partialRectangle;collapsible=0;dropTarget=0;pointerEvents=0;fillColor=none;top=0;left=0;bottom=1;right=0;points=[[0,0.5],[1,0.5]];portConstraint=eastwest;" vertex="1" parent="E98kSPfZP86CaEC_CXRD-1">
          <mxGeometry y="30" width="180" height="30" as="geometry" />
        </mxCell>
        <mxCell id="E98kSPfZP86CaEC_CXRD-3" value="PK" style="shape=partialRectangle;connectable=0;fillColor=none;top=0;left=0;bottom=0;right=0;fontStyle=1;overflow=hidden;" vertex="1" parent="E98kSPfZP86CaEC_CXRD-2">
          <mxGeometry width="30" height="30" as="geometry" />
        </mxCell>
        <mxCell id="E98kSPfZP86CaEC_CXRD-4" value="id" style="shape=partialRectangle;connectable=0;fillColor=none;top=0;left=0;bottom=0;right=0;align=left;spacingLeft=6;fontStyle=5;overflow=hidden;" vertex="1" parent="E98kSPfZP86CaEC_CXRD-2">
          <mxGeometry x="30" width="150" height="30" as="geometry" />
        </mxCell>
        <mxCell id="E98kSPfZP86CaEC_CXRD-5" value="" style="shape=partialRectangle;collapsible=0;dropTarget=0;pointerEvents=0;fillColor=none;top=0;left=0;bottom=0;right=0;points=[[0,0.5],[1,0.5]];portConstraint=eastwest;" vertex="1" parent="E98kSPfZP86CaEC_CXRD-1">
          <mxGeometry y="60" width="180" height="30" as="geometry" />
        </mxCell>
        <mxCell id="E98kSPfZP86CaEC_CXRD-6" value="" style="shape=partialRectangle;connectable=0;fillColor=none;top=0;left=0;bottom=0;right=0;editable=1;overflow=hidden;" vertex="1" parent="E98kSPfZP86CaEC_CXRD-5">
          <mxGeometry width="30" height="30" as="geometry" />
        </mxCell>
        <mxCell id="E98kSPfZP86CaEC_CXRD-7" value="carcode" style="shape=partialRectangle;connectable=0;fillColor=none;top=0;left=0;bottom=0;right=0;align=left;spacingLeft=6;overflow=hidden;" vertex="1" parent="E98kSPfZP86CaEC_CXRD-5">
          <mxGeometry x="30" width="150" height="30" as="geometry" />
        </mxCell>
        <mxCell id="E98kSPfZP86CaEC_CXRD-8" value="" style="shape=partialRectangle;collapsible=0;dropTarget=0;pointerEvents=0;fillColor=none;top=0;left=0;bottom=0;right=0;points=[[0,0.5],[1,0.5]];portConstraint=eastwest;" vertex="1" parent="E98kSPfZP86CaEC_CXRD-1">
          <mxGeometry y="90" width="180" height="30" as="geometry" />
        </mxCell>
        <mxCell id="E98kSPfZP86CaEC_CXRD-9" value="" style="shape=partialRectangle;connectable=0;fillColor=none;top=0;left=0;bottom=0;right=0;editable=1;overflow=hidden;" vertex="1" parent="E98kSPfZP86CaEC_CXRD-8">
          <mxGeometry width="30" height="30" as="geometry" />
        </mxCell>
        <mxCell id="E98kSPfZP86CaEC_CXRD-10" value="hardware_status" style="shape=partialRectangle;connectable=0;fillColor=none;top=0;left=0;bottom=0;right=0;align=left;spacingLeft=6;overflow=hidden;" vertex="1" parent="E98kSPfZP86CaEC_CXRD-8">
          <mxGeometry x="30" width="150" height="30" as="geometry" />
        </mxCell>
        <mxCell id="E98kSPfZP86CaEC_CXRD-11" value="" style="shape=partialRectangle;collapsible=0;dropTarget=0;pointerEvents=0;fillColor=none;top=0;left=0;bottom=0;right=0;points=[[0,0.5],[1,0.5]];portConstraint=eastwest;" vertex="1" parent="E98kSPfZP86CaEC_CXRD-1">
          <mxGeometry y="120" width="180" height="30" as="geometry" />
        </mxCell>
        <mxCell id="E98kSPfZP86CaEC_CXRD-12" value="" style="shape=partialRectangle;connectable=0;fillColor=none;top=0;left=0;bottom=0;right=0;editable=1;overflow=hidden;" vertex="1" parent="E98kSPfZP86CaEC_CXRD-11">
          <mxGeometry width="30" height="30" as="geometry" />
        </mxCell>
        <mxCell id="E98kSPfZP86CaEC_CXRD-13" value="sensor_status" style="shape=partialRectangle;connectable=0;fillColor=none;top=0;left=0;bottom=0;right=0;align=left;spacingLeft=6;overflow=hidden;" vertex="1" parent="E98kSPfZP86CaEC_CXRD-11">
          <mxGeometry x="30" width="150" height="30" as="geometry" />
        </mxCell>
        <mxCell id="E98kSPfZP86CaEC_CXRD-14" value="" style="shape=partialRectangle;collapsible=0;dropTarget=0;pointerEvents=0;fillColor=none;top=0;left=0;bottom=0;right=0;points=[[0,0.5],[1,0.5]];portConstraint=eastwest;" vertex="1" parent="E98kSPfZP86CaEC_CXRD-1">
          <mxGeometry y="150" width="180" height="30" as="geometry" />
        </mxCell>
        <mxCell id="E98kSPfZP86CaEC_CXRD-15" value="" style="shape=partialRectangle;connectable=0;fillColor=none;top=0;left=0;bottom=0;right=0;editable=1;overflow=hidden;" vertex="1" parent="E98kSPfZP86CaEC_CXRD-14">
          <mxGeometry width="30" height="30" as="geometry" />
        </mxCell>
        <mxCell id="E98kSPfZP86CaEC_CXRD-16" value="accuracy_status" style="shape=partialRectangle;connectable=0;fillColor=none;top=0;left=0;bottom=0;right=0;align=left;spacingLeft=6;overflow=hidden;" vertex="1" parent="E98kSPfZP86CaEC_CXRD-14">
          <mxGeometry x="30" width="150" height="30" as="geometry" />
        </mxCell>
        <mxCell id="E98kSPfZP86CaEC_CXRD-17" value="" style="shape=partialRectangle;collapsible=0;dropTarget=0;pointerEvents=0;fillColor=none;top=0;left=0;bottom=0;right=0;points=[[0,0.5],[1,0.5]];portConstraint=eastwest;" vertex="1" parent="E98kSPfZP86CaEC_CXRD-1">
          <mxGeometry y="180" width="180" height="30" as="geometry" />
        </mxCell>
        <mxCell id="E98kSPfZP86CaEC_CXRD-18" value="" style="shape=partialRectangle;connectable=0;fillColor=none;top=0;left=0;bottom=0;right=0;editable=1;overflow=hidden;" vertex="1" parent="E98kSPfZP86CaEC_CXRD-17">
          <mxGeometry width="30" height="30" as="geometry" />
        </mxCell>
        <mxCell id="E98kSPfZP86CaEC_CXRD-19" value="car_log" style="shape=partialRectangle;connectable=0;fillColor=none;top=0;left=0;bottom=0;right=0;align=left;spacingLeft=6;overflow=hidden;" vertex="1" parent="E98kSPfZP86CaEC_CXRD-17">
          <mxGeometry x="30" width="150" height="30" as="geometry" />
        </mxCell>
        <mxCell id="E98kSPfZP86CaEC_CXRD-20" value="" style="shape=partialRectangle;collapsible=0;dropTarget=0;pointerEvents=0;fillColor=none;top=0;left=0;bottom=0;right=0;points=[[0,0.5],[1,0.5]];portConstraint=eastwest;" vertex="1" parent="E98kSPfZP86CaEC_CXRD-1">
          <mxGeometry y="210" width="180" height="30" as="geometry" />
        </mxCell>
        <mxCell id="E98kSPfZP86CaEC_CXRD-21" value="" style="shape=partialRectangle;connectable=0;fillColor=none;top=0;left=0;bottom=0;right=0;editable=1;overflow=hidden;" vertex="1" parent="E98kSPfZP86CaEC_CXRD-20">
          <mxGeometry width="30" height="30" as="geometry" />
        </mxCell>
        <mxCell id="E98kSPfZP86CaEC_CXRD-22" value="created_at" style="shape=partialRectangle;connectable=0;fillColor=none;top=0;left=0;bottom=0;right=0;align=left;spacingLeft=6;overflow=hidden;" vertex="1" parent="E98kSPfZP86CaEC_CXRD-20">
          <mxGeometry x="30" width="150" height="30" as="geometry" />
        </mxCell>
        <mxCell id="E98kSPfZP86CaEC_CXRD-23" value="" style="shape=partialRectangle;collapsible=0;dropTarget=0;pointerEvents=0;fillColor=none;top=0;left=0;bottom=0;right=0;points=[[0,0.5],[1,0.5]];portConstraint=eastwest;" vertex="1" parent="E98kSPfZP86CaEC_CXRD-1">
          <mxGeometry y="240" width="180" height="30" as="geometry" />
        </mxCell>
        <mxCell id="E98kSPfZP86CaEC_CXRD-24" value="" style="shape=partialRectangle;connectable=0;fillColor=none;top=0;left=0;bottom=0;right=0;editable=1;overflow=hidden;" vertex="1" parent="E98kSPfZP86CaEC_CXRD-23">
          <mxGeometry width="30" height="30" as="geometry" />
        </mxCell>
        <mxCell id="E98kSPfZP86CaEC_CXRD-25" value="updated_at" style="shape=partialRectangle;connectable=0;fillColor=none;top=0;left=0;bottom=0;right=0;align=left;spacingLeft=6;overflow=hidden;" vertex="1" parent="E98kSPfZP86CaEC_CXRD-23">
          <mxGeometry x="30" width="150" height="30" as="geometry" />
        </mxCell>
        <mxCell id="E98kSPfZP86CaEC_CXRD-32" value="car_selfcheck_statics" style="shape=table;startSize=30;container=1;collapsible=1;childLayout=tableLayout;fixedRows=1;rowLines=0;fontStyle=1;align=center;resizeLast=1;" vertex="1" parent="1">
          <mxGeometry x="440" y="150" width="180" height="430" as="geometry" />
        </mxCell>
        <mxCell id="E98kSPfZP86CaEC_CXRD-33" value="" style="shape=partialRectangle;collapsible=0;dropTarget=0;pointerEvents=0;fillColor=none;top=0;left=0;bottom=1;right=0;points=[[0,0.5],[1,0.5]];portConstraint=eastwest;" vertex="1" parent="E98kSPfZP86CaEC_CXRD-32">
          <mxGeometry y="30" width="180" height="30" as="geometry" />
        </mxCell>
        <mxCell id="E98kSPfZP86CaEC_CXRD-34" value="PK" style="shape=partialRectangle;connectable=0;fillColor=none;top=0;left=0;bottom=0;right=0;fontStyle=1;overflow=hidden;" vertex="1" parent="E98kSPfZP86CaEC_CXRD-33">
          <mxGeometry width="30" height="30" as="geometry" />
        </mxCell>
        <mxCell id="E98kSPfZP86CaEC_CXRD-35" value="id" style="shape=partialRectangle;connectable=0;fillColor=none;top=0;left=0;bottom=0;right=0;align=left;spacingLeft=6;fontStyle=5;overflow=hidden;" vertex="1" parent="E98kSPfZP86CaEC_CXRD-33">
          <mxGeometry x="30" width="150" height="30" as="geometry" />
        </mxCell>
        <mxCell id="E98kSPfZP86CaEC_CXRD-36" value="" style="shape=partialRectangle;collapsible=0;dropTarget=0;pointerEvents=0;fillColor=none;top=0;left=0;bottom=0;right=0;points=[[0,0.5],[1,0.5]];portConstraint=eastwest;" vertex="1" parent="E98kSPfZP86CaEC_CXRD-32">
          <mxGeometry y="60" width="180" height="30" as="geometry" />
        </mxCell>
        <mxCell id="E98kSPfZP86CaEC_CXRD-37" value="" style="shape=partialRectangle;connectable=0;fillColor=none;top=0;left=0;bottom=0;right=0;editable=1;overflow=hidden;" vertex="1" parent="E98kSPfZP86CaEC_CXRD-36">
          <mxGeometry width="30" height="30" as="geometry" />
        </mxCell>
        <mxCell id="E98kSPfZP86CaEC_CXRD-38" value="carcode" style="shape=partialRectangle;connectable=0;fillColor=none;top=0;left=0;bottom=0;right=0;align=left;spacingLeft=6;overflow=hidden;" vertex="1" parent="E98kSPfZP86CaEC_CXRD-36">
          <mxGeometry x="30" width="150" height="30" as="geometry" />
        </mxCell>
        <mxCell id="E98kSPfZP86CaEC_CXRD-39" value="" style="shape=partialRectangle;collapsible=0;dropTarget=0;pointerEvents=0;fillColor=none;top=0;left=0;bottom=0;right=0;points=[[0,0.5],[1,0.5]];portConstraint=eastwest;" vertex="1" parent="E98kSPfZP86CaEC_CXRD-32">
          <mxGeometry y="90" width="180" height="30" as="geometry" />
        </mxCell>
        <mxCell id="E98kSPfZP86CaEC_CXRD-40" value="" style="shape=partialRectangle;connectable=0;fillColor=none;top=0;left=0;bottom=0;right=0;editable=1;overflow=hidden;" vertex="1" parent="E98kSPfZP86CaEC_CXRD-39">
          <mxGeometry width="30" height="30" as="geometry" />
        </mxCell>
        <mxCell id="E98kSPfZP86CaEC_CXRD-41" value="hardware_success" style="shape=partialRectangle;connectable=0;fillColor=none;top=0;left=0;bottom=0;right=0;align=left;spacingLeft=6;overflow=hidden;" vertex="1" parent="E98kSPfZP86CaEC_CXRD-39">
          <mxGeometry x="30" width="150" height="30" as="geometry" />
        </mxCell>
        <mxCell id="E98kSPfZP86CaEC_CXRD-42" value="" style="shape=partialRectangle;collapsible=0;dropTarget=0;pointerEvents=0;fillColor=none;top=0;left=0;bottom=0;right=0;points=[[0,0.5],[1,0.5]];portConstraint=eastwest;" vertex="1" parent="E98kSPfZP86CaEC_CXRD-32">
          <mxGeometry y="120" width="180" height="30" as="geometry" />
        </mxCell>
        <mxCell id="E98kSPfZP86CaEC_CXRD-43" value="" style="shape=partialRectangle;connectable=0;fillColor=none;top=0;left=0;bottom=0;right=0;editable=1;overflow=hidden;" vertex="1" parent="E98kSPfZP86CaEC_CXRD-42">
          <mxGeometry width="30" height="30" as="geometry" />
        </mxCell>
        <mxCell id="E98kSPfZP86CaEC_CXRD-44" value="hardware_fail" style="shape=partialRectangle;connectable=0;fillColor=none;top=0;left=0;bottom=0;right=0;align=left;spacingLeft=6;overflow=hidden;" vertex="1" parent="E98kSPfZP86CaEC_CXRD-42">
          <mxGeometry x="30" width="150" height="30" as="geometry" />
        </mxCell>
        <mxCell id="E98kSPfZP86CaEC_CXRD-45" value="" style="shape=partialRectangle;collapsible=0;dropTarget=0;pointerEvents=0;fillColor=none;top=0;left=0;bottom=0;right=0;points=[[0,0.5],[1,0.5]];portConstraint=eastwest;" vertex="1" parent="E98kSPfZP86CaEC_CXRD-32">
          <mxGeometry y="150" width="180" height="30" as="geometry" />
        </mxCell>
        <mxCell id="E98kSPfZP86CaEC_CXRD-46" value="" style="shape=partialRectangle;connectable=0;fillColor=none;top=0;left=0;bottom=0;right=0;editable=1;overflow=hidden;" vertex="1" parent="E98kSPfZP86CaEC_CXRD-45">
          <mxGeometry width="30" height="30" as="geometry" />
        </mxCell>
        <mxCell id="E98kSPfZP86CaEC_CXRD-47" value="hardware_process" style="shape=partialRectangle;connectable=0;fillColor=none;top=0;left=0;bottom=0;right=0;align=left;spacingLeft=6;overflow=hidden;" vertex="1" parent="E98kSPfZP86CaEC_CXRD-45">
          <mxGeometry x="30" width="150" height="30" as="geometry" />
        </mxCell>
        <mxCell id="E98kSPfZP86CaEC_CXRD-48" value="" style="shape=partialRectangle;collapsible=0;dropTarget=0;pointerEvents=0;fillColor=none;top=0;left=0;bottom=0;right=0;points=[[0,0.5],[1,0.5]];portConstraint=eastwest;" vertex="1" parent="E98kSPfZP86CaEC_CXRD-32">
          <mxGeometry y="180" width="180" height="30" as="geometry" />
        </mxCell>
        <mxCell id="E98kSPfZP86CaEC_CXRD-49" value="" style="shape=partialRectangle;connectable=0;fillColor=none;top=0;left=0;bottom=0;right=0;editable=1;overflow=hidden;" vertex="1" parent="E98kSPfZP86CaEC_CXRD-48">
          <mxGeometry width="30" height="30" as="geometry" />
        </mxCell>
        <mxCell id="E98kSPfZP86CaEC_CXRD-50" value="sensor_success" style="shape=partialRectangle;connectable=0;fillColor=none;top=0;left=0;bottom=0;right=0;align=left;spacingLeft=6;overflow=hidden;" vertex="1" parent="E98kSPfZP86CaEC_CXRD-48">
          <mxGeometry x="30" width="150" height="30" as="geometry" />
        </mxCell>
        <mxCell id="E98kSPfZP86CaEC_CXRD-51" value="" style="shape=partialRectangle;collapsible=0;dropTarget=0;pointerEvents=0;fillColor=none;top=0;left=0;bottom=0;right=0;points=[[0,0.5],[1,0.5]];portConstraint=eastwest;" vertex="1" parent="E98kSPfZP86CaEC_CXRD-32">
          <mxGeometry y="210" width="180" height="30" as="geometry" />
        </mxCell>
        <mxCell id="E98kSPfZP86CaEC_CXRD-52" value="" style="shape=partialRectangle;connectable=0;fillColor=none;top=0;left=0;bottom=0;right=0;editable=1;overflow=hidden;" vertex="1" parent="E98kSPfZP86CaEC_CXRD-51">
          <mxGeometry width="30" height="30" as="geometry" />
        </mxCell>
        <mxCell id="E98kSPfZP86CaEC_CXRD-53" value="sensor_fail" style="shape=partialRectangle;connectable=0;fillColor=none;top=0;left=0;bottom=0;right=0;align=left;spacingLeft=6;overflow=hidden;" vertex="1" parent="E98kSPfZP86CaEC_CXRD-51">
          <mxGeometry x="30" width="150" height="30" as="geometry" />
        </mxCell>
        <mxCell id="E98kSPfZP86CaEC_CXRD-54" value="" style="shape=partialRectangle;collapsible=0;dropTarget=0;pointerEvents=0;fillColor=none;top=0;left=0;bottom=0;right=0;points=[[0,0.5],[1,0.5]];portConstraint=eastwest;" vertex="1" parent="E98kSPfZP86CaEC_CXRD-32">
          <mxGeometry y="240" width="180" height="30" as="geometry" />
        </mxCell>
        <mxCell id="E98kSPfZP86CaEC_CXRD-55" value="" style="shape=partialRectangle;connectable=0;fillColor=none;top=0;left=0;bottom=0;right=0;editable=1;overflow=hidden;" vertex="1" parent="E98kSPfZP86CaEC_CXRD-54">
          <mxGeometry width="30" height="30" as="geometry" />
        </mxCell>
        <mxCell id="E98kSPfZP86CaEC_CXRD-56" value="sensor_process" style="shape=partialRectangle;connectable=0;fillColor=none;top=0;left=0;bottom=0;right=0;align=left;spacingLeft=6;overflow=hidden;" vertex="1" parent="E98kSPfZP86CaEC_CXRD-54">
          <mxGeometry x="30" width="150" height="30" as="geometry" />
        </mxCell>
        <mxCell id="E98kSPfZP86CaEC_CXRD-57" value="" style="shape=partialRectangle;collapsible=0;dropTarget=0;pointerEvents=0;fillColor=none;top=0;left=0;bottom=0;right=0;points=[[0,0.5],[1,0.5]];portConstraint=eastwest;" vertex="1" parent="E98kSPfZP86CaEC_CXRD-32">
          <mxGeometry y="270" width="180" height="30" as="geometry" />
        </mxCell>
        <mxCell id="E98kSPfZP86CaEC_CXRD-58" value="" style="shape=partialRectangle;connectable=0;fillColor=none;top=0;left=0;bottom=0;right=0;editable=1;overflow=hidden;" vertex="1" parent="E98kSPfZP86CaEC_CXRD-57">
          <mxGeometry width="30" height="30" as="geometry" />
        </mxCell>
        <mxCell id="E98kSPfZP86CaEC_CXRD-59" value="accuracy_success" style="shape=partialRectangle;connectable=0;fillColor=none;top=0;left=0;bottom=0;right=0;align=left;spacingLeft=6;overflow=hidden;" vertex="1" parent="E98kSPfZP86CaEC_CXRD-57">
          <mxGeometry x="30" width="150" height="30" as="geometry" />
        </mxCell>
        <mxCell id="E98kSPfZP86CaEC_CXRD-63" value="" style="shape=partialRectangle;collapsible=0;dropTarget=0;pointerEvents=0;fillColor=none;top=0;left=0;bottom=0;right=0;points=[[0,0.5],[1,0.5]];portConstraint=eastwest;" vertex="1" parent="E98kSPfZP86CaEC_CXRD-32">
          <mxGeometry y="300" width="180" height="30" as="geometry" />
        </mxCell>
        <mxCell id="E98kSPfZP86CaEC_CXRD-64" value="" style="shape=partialRectangle;connectable=0;fillColor=none;top=0;left=0;bottom=0;right=0;editable=1;overflow=hidden;" vertex="1" parent="E98kSPfZP86CaEC_CXRD-63">
          <mxGeometry width="30" height="30" as="geometry" />
        </mxCell>
        <mxCell id="E98kSPfZP86CaEC_CXRD-65" value="accuracy_fail" style="shape=partialRectangle;connectable=0;fillColor=none;top=0;left=0;bottom=0;right=0;align=left;spacingLeft=6;overflow=hidden;" vertex="1" parent="E98kSPfZP86CaEC_CXRD-63">
          <mxGeometry x="30" width="150" height="30" as="geometry" />
        </mxCell>
        <mxCell id="E98kSPfZP86CaEC_CXRD-66" value="" style="shape=partialRectangle;collapsible=0;dropTarget=0;pointerEvents=0;fillColor=none;top=0;left=0;bottom=0;right=0;points=[[0,0.5],[1,0.5]];portConstraint=eastwest;" vertex="1" parent="E98kSPfZP86CaEC_CXRD-32">
          <mxGeometry y="330" width="180" height="30" as="geometry" />
        </mxCell>
        <mxCell id="E98kSPfZP86CaEC_CXRD-67" value="" style="shape=partialRectangle;connectable=0;fillColor=none;top=0;left=0;bottom=0;right=0;editable=1;overflow=hidden;" vertex="1" parent="E98kSPfZP86CaEC_CXRD-66">
          <mxGeometry width="30" height="30" as="geometry" />
        </mxCell>
        <mxCell id="E98kSPfZP86CaEC_CXRD-68" value="accuracy_process" style="shape=partialRectangle;connectable=0;fillColor=none;top=0;left=0;bottom=0;right=0;align=left;spacingLeft=6;overflow=hidden;" vertex="1" parent="E98kSPfZP86CaEC_CXRD-66">
          <mxGeometry x="30" width="150" height="30" as="geometry" />
        </mxCell>
        <mxCell id="E98kSPfZP86CaEC_CXRD-69" value="" style="shape=partialRectangle;collapsible=0;dropTarget=0;pointerEvents=0;fillColor=none;top=0;left=0;bottom=0;right=0;points=[[0,0.5],[1,0.5]];portConstraint=eastwest;" vertex="1" parent="E98kSPfZP86CaEC_CXRD-32">
          <mxGeometry y="360" width="180" height="30" as="geometry" />
        </mxCell>
        <mxCell id="E98kSPfZP86CaEC_CXRD-70" value="" style="shape=partialRectangle;connectable=0;fillColor=none;top=0;left=0;bottom=0;right=0;editable=1;overflow=hidden;" vertex="1" parent="E98kSPfZP86CaEC_CXRD-69">
          <mxGeometry width="30" height="30" as="geometry" />
        </mxCell>
        <mxCell id="E98kSPfZP86CaEC_CXRD-71" value="created_at" style="shape=partialRectangle;connectable=0;fillColor=none;top=0;left=0;bottom=0;right=0;align=left;spacingLeft=6;overflow=hidden;" vertex="1" parent="E98kSPfZP86CaEC_CXRD-69">
          <mxGeometry x="30" width="150" height="30" as="geometry" />
        </mxCell>
        <mxCell id="E98kSPfZP86CaEC_CXRD-72" value="" style="shape=partialRectangle;collapsible=0;dropTarget=0;pointerEvents=0;fillColor=none;top=0;left=0;bottom=0;right=0;points=[[0,0.5],[1,0.5]];portConstraint=eastwest;" vertex="1" parent="E98kSPfZP86CaEC_CXRD-32">
          <mxGeometry y="390" width="180" height="30" as="geometry" />
        </mxCell>
        <mxCell id="E98kSPfZP86CaEC_CXRD-73" value="" style="shape=partialRectangle;connectable=0;fillColor=none;top=0;left=0;bottom=0;right=0;editable=1;overflow=hidden;" vertex="1" parent="E98kSPfZP86CaEC_CXRD-72">
          <mxGeometry width="30" height="30" as="geometry" />
        </mxCell>
        <mxCell id="E98kSPfZP86CaEC_CXRD-74" value="updated_at" style="shape=partialRectangle;connectable=0;fillColor=none;top=0;left=0;bottom=0;right=0;align=left;spacingLeft=6;overflow=hidden;" vertex="1" parent="E98kSPfZP86CaEC_CXRD-72">
          <mxGeometry x="30" width="150" height="30" as="geometry" />
        </mxCell>
      </root>
    </mxGraphModel>
  </diagram>
</mxfile>
